<?xml version="1.0" standalone="no"?>
<!DOCTYPE svg PUBLIC "-//W3C//DTD SVG 20010904//EN"
 "http://www.w3.org/TR/2001/REC-SVG-20010904/DTD/svg10.dtd">
<svg version="1.0" xmlns="http://www.w3.org/2000/svg"
 width="1002.000000pt" height="1002.000000pt" viewBox="0 0 1002.000000 1002.000000"
 preserveAspectRatio="xMidYMid meet">
<metadata>
Created by potrace 1.14, written by Peter Selinger 2001-2017
</metadata>
<g transform="translate(0.000000,1002.000000) scale(0.100000,-0.100000)"
fill="#000000" stroke="none">
<path d="M4970 9216 c-26 -34 -115 -137 -162 -187 -16 -17 -28 -34 -28 -39 0
-4 -4 -10 -8 -12 -9 -3 -57 -57 -147 -163 -27 -32 -57 -66 -65 -75 -8 -9 -40
-45 -70 -80 -60 -71 -95 -110 -125 -145 -60 -67 -138 -157 -200 -230 -21 -25
-48 -56 -60 -69 -11 -12 -38 -44 -60 -70 -22 -27 -56 -66 -77 -88 -20 -21 -47
-52 -60 -69 -12 -17 -30 -38 -39 -47 -14 -14 -106 -121 -169 -195 -8 -10 -22
-26 -31 -35 -9 -9 -51 -57 -94 -107 -42 -49 -99 -115 -125 -145 -27 -30 -58
-66 -70 -80 -12 -14 -36 -41 -53 -61 -18 -19 -47 -54 -65 -77 -19 -23 -44 -52
-55 -65 -50 -54 -105 -117 -147 -167 -56 -65 -62 -72 -130 -150 -30 -34 -62
-71 -70 -82 -8 -10 -31 -36 -50 -58 -19 -21 -51 -58 -70 -81 -19 -22 -54 -61
-76 -85 -23 -24 -40 -44 -37 -44 2 0 -6 -10 -19 -23 -13 -13 -42 -46 -65 -73
-63 -75 -168 -196 -208 -240 -11 -12 -34 -40 -52 -61 -17 -21 -46 -54 -63 -73
-17 -19 -48 -55 -68 -79 -33 -40 -79 -92 -137 -156 -11 -13 -36 -42 -56 -66
-21 -24 -48 -56 -60 -70 -13 -14 -46 -52 -74 -84 -27 -33 -60 -69 -72 -82 -11
-13 -36 -42 -53 -63 -18 -22 -46 -55 -64 -74 -17 -18 -65 -73 -106 -121 -72
-84 -143 -167 -181 -210 -10 -11 -39 -45 -65 -75 -26 -30 -51 -56 -56 -58 -4
-2 -8 -8 -8 -12 0 -5 -12 -22 -28 -38 -28 -31 -94 -105 -138 -157 -36 -43
-106 -123 -129 -149 -11 -13 -41 -48 -67 -78 -26 -30 -58 -66 -70 -80 -13 -14
-32 -36 -43 -50 -11 -14 -43 -52 -72 -84 -28 -32 -60 -68 -70 -80 -41 -48
-129 -149 -148 -170 -25 -27 -50 -57 -93 -109 -40 -47 -140 -160 -164 -187
-10 -10 -18 -20 -18 -22 0 -2 -18 -23 -39 -47 -42 -45 -42 -52 9 -77 14 -7 39
-20 55 -31 17 -10 48 -28 70 -41 22 -12 81 -46 130 -75 50 -29 110 -63 135
-77 25 -14 101 -58 170 -98 69 -40 145 -84 170 -98 25 -14 62 -36 82 -49 21
-12 42 -23 48 -23 5 0 10 -5 10 -12 0 -6 3 -8 6 -5 4 4 19 -2 33 -12 27 -20
76 -48 151 -89 25 -13 47 -27 50 -31 3 -4 23 -15 45 -25 22 -11 51 -27 65 -36
27 -19 112 -67 147 -84 13 -6 23 -14 23 -18 0 -5 6 -8 14 -8 8 0 22 -8 32 -17
10 -10 18 -16 18 -14 1 6 96 -48 120 -68 10 -9 19 -14 20 -11 0 2 44 -21 96
-52 98 -57 142 -83 220 -126 25 -13 52 -30 60 -36 8 -7 26 -18 40 -24 14 -7
46 -24 71 -40 26 -15 98 -56 160 -92 63 -35 116 -68 117 -72 2 -4 8 -8 12 -8
5 0 37 -17 72 -37 35 -21 65 -38 68 -38 3 0 17 -8 33 -18 57 -36 81 -50 136
-79 31 -17 63 -37 72 -44 8 -8 18 -14 22 -14 3 0 28 -13 55 -29 27 -16 76 -44
108 -62 33 -17 61 -35 64 -38 3 -4 16 -12 30 -18 14 -7 43 -23 65 -36 81 -46
170 -98 185 -107 58 -36 173 -100 181 -100 5 0 9 -4 9 -10 0 -5 4 -10 9 -10 5
0 65 -32 133 -71 67 -39 143 -83 168 -97 25 -13 50 -28 55 -32 6 -4 33 -20 60
-35 70 -40 147 -84 165 -95 48 -30 153 -90 156 -90 2 0 33 -18 69 -40 36 -22
67 -40 69 -40 2 0 76 -43 165 -95 89 -52 164 -95 167 -95 3 0 30 -16 60 -35
30 -19 58 -35 63 -35 5 0 14 -7 21 -15 8 -10 21 -13 34 -9 12 4 153 83 314
176 161 93 309 178 330 190 20 12 51 29 67 38 17 9 41 23 55 32 48 31 115 69
133 75 9 3 17 9 17 14 0 5 5 9 10 9 6 0 63 31 128 68 64 38 128 75 142 83 14
8 28 19 32 24 4 6 8 6 8 1 0 -5 6 -4 13 2 6 6 39 26 72 45 212 121 259 147
266 147 5 0 9 3 9 8 0 4 26 20 58 37 31 16 59 32 62 35 3 3 16 11 29 18 13 8
38 22 56 32 18 10 43 24 56 32 13 7 26 15 29 19 3 3 21 13 40 22 19 10 58 31
85 47 28 17 61 36 75 43 14 6 27 14 30 18 3 3 12 9 20 12 8 4 29 16 45 27 17
11 37 23 45 26 8 4 68 38 132 76 64 37 121 68 127 68 5 0 11 4 13 8 3 7 24 20
168 100 25 14 73 43 108 64 34 21 64 38 67 38 2 0 44 24 92 53 48 28 109 63
136 77 26 14 47 28 47 32 0 5 5 8 11 8 5 0 94 49 197 109 103 59 203 116 222
126 19 10 37 21 40 24 3 3 21 15 40 25 19 10 62 35 95 54 103 59 129 74 175
100 25 14 78 45 118 69 41 24 78 43 83 43 5 0 9 3 9 8 0 4 20 16 45 27 25 11
45 23 45 26 0 4 8 9 18 13 9 3 33 15 52 27 32 19 444 258 530 306 19 11 52 30
73 43 l37 22 -52 62 c-28 33 -57 66 -62 71 -6 6 -35 39 -65 75 -30 36 -64 75
-75 87 -12 12 -26 28 -32 36 -10 11 -100 116 -171 197 -54 62 -67 77 -96 113
-18 21 -43 51 -57 66 -14 14 -50 55 -80 90 -30 35 -59 69 -65 75 -5 6 -35 40
-65 76 -30 36 -64 74 -75 86 -11 12 -36 40 -55 64 -19 23 -44 52 -55 64 -11
12 -45 51 -75 86 -30 35 -64 74 -75 86 -11 12 -38 43 -60 69 -22 27 -62 73
-90 104 -27 31 -56 64 -65 75 -35 42 -97 113 -122 138 -14 16 -24 28 -22 28 3
0 -5 11 -18 24 -13 13 -43 47 -68 76 -25 29 -50 58 -55 64 -6 6 -41 47 -79 91
-37 44 -80 94 -95 110 -36 40 -161 185 -181 209 -8 10 -22 26 -31 35 -8 9 -46
52 -84 96 -67 79 -136 159 -185 214 -14 16 -45 52 -70 81 -25 29 -50 58 -55
64 -6 6 -37 42 -70 81 -33 38 -64 75 -70 81 -9 9 -43 49 -128 148 -70 81 -114
132 -127 145 -8 9 -40 46 -70 81 -30 36 -59 70 -65 76 -5 6 -32 37 -60 69 -27
32 -60 69 -73 83 -12 14 -41 48 -65 75 -23 28 -53 62 -67 78 -14 15 -39 44
-57 65 -18 22 -45 53 -60 71 -15 17 -48 55 -73 84 -25 29 -50 57 -55 63 -10
10 -167 194 -210 244 -11 13 -31 37 -45 52 -14 15 -38 43 -55 61 -16 19 -72
84 -124 144 -52 61 -120 139 -151 175 -32 36 -77 88 -100 115 -24 28 -46 52
-49 55 -3 3 -26 30 -51 60 -25 30 -60 70 -77 88 -18 18 -33 36 -33 41 0 4 -10
17 -22 28 -27 24 -126 137 -148 167 -8 12 -24 30 -35 41 -11 11 -47 51 -80 90
-33 38 -70 81 -82 95 -12 14 -31 36 -43 50 -70 83 -124 140 -134 140 -6 -1
-22 -16 -36 -34z"/>
</g>
</svg>
